# xmcd
#
# Track frame offsets:
#	150
#	21463
#	36350
#	52075
#	67575
#	97850
#	119400
#	140438
#	155075
#	173588
#	196125
#	216125
#	239088
#	254388
#	265463
#	278200
#
# Disc length: 3950
#
# Revision: 4
# Processed by: cddbd v1.5.1PL0 Copyright (c) Steve Scherf et al.
# Submitted via: CDex 1.51
# Normalized: r2:TSWAP
#
DISCID=ee0f6c10
DTITLE=SWING OUT SISTER etc... - BOW WOW2
DYEAR=1996
DGENRE=Other
TTITLE0=SWING OUT SISTERS - NOW YOU'RE NOT HERE
TTITLE1=THE CARDIGANS - LOVEFOOL
TTITLE2=LARRY MULLEN and ADAM CLAYTON - THEME FROM MISSION - IMPOSSIBLE
TTITLE3=BRYAN ADAMS - THE ONLY THING THAT LOOKS GOOD ON ME IS YOU
TTITLE4=STING - LET YOUR SOUL BE YOUR PILOT
TTITLE5=BON JOVI - HEY GOD
TTITLE6=MR.BIG - TAKE CODER
TTITLE7=INNER CIRCLE - I LOVE GIRLS
TTITLE8=TAKE 6 - SING A SONG
TTITLE9=TEVIN CAMPBEL - BACK TO THE WORLD
TTITLE10=THE CRANBERRIES - FREE TO DECIDE
TTITLE11=JOAN OSBORNE - ONE OF US
TTITLE12=PINEFOREST CRUNCH - CUP NOODLE SONG
TTITLE13=BOBBY CALDWELL - THE GIRL I DREAM ABOUT
TTITLE14=THE BEE GEES - FIRST OF MAY
TTITLE15=ELTON JOHN - YOUR SONG
EXTD=YEAR: 1996
EXTT0=
EXTT1=
EXTT2=
EXTT3=
EXTT4=
EXTT5=
EXTT6=
EXTT7=
EXTT8=
EXTT9=
EXTT10=
EXTT11=
EXTT12=
EXTT13=
EXTT14=
EXTT15=
PLAYORDER=
